<?xml version="1.0" encoding="UTF-8" standalone="no"?>
<svg
   width="16"
   height="16"
   version="1.1"
   id="svg1"
   sodipodi:docname="camera-photo-symbolic.svg"
   inkscape:version="1.4.2 (1:1.4.2+202505120738+ebf0e940d0)"
   xmlns:inkscape="http://www.inkscape.org/namespaces/inkscape"
   xmlns:sodipodi="http://sodipodi.sourceforge.net/DTD/sodipodi-0.dtd"
   xmlns="http://www.w3.org/2000/svg"
   xmlns:svg="http://www.w3.org/2000/svg">
  <defs
     id="defs1" />
  <sodipodi:namedview
     id="namedview1"
     pagecolor="#ffffff"
     bordercolor="#666666"
     borderopacity="1.0"
     inkscape:showpageshadow="2"
     inkscape:pageopacity="0.0"
     inkscape:pagecheckerboard="0"
     inkscape:deskcolor="#d1d1d1"
     inkscape:zoom="23"
     inkscape:cx="1.5"
     inkscape:cy="11.804348"
     inkscape:window-width="2556"
     inkscape:window-height="1398"
     inkscape:window-x="0"
     inkscape:window-y="0"
     inkscape:window-maximized="1"
     inkscape:current-layer="svg1" />
  <path
     d="M 6,2 C 5.45,2 5,2.45 5,3 V 4 H 2 C 1.448,4 1,4.45 1,5 v 8 c 0,0.55 0.448,1 1,1 h 12 c 0.552,0 1,-0.45 1,-1 V 5 C 15,4.45 14.552,4 14,4 H 11 V 3 C 11,2.45 10.55,2 10,2 Z"
     id="path1"
     style="font-variation-settings:normal;opacity:1;vector-effect:none;fill:#22314e;fill-opacity:1;stroke-width:0.56314;stroke-linecap:butt;stroke-linejoin:miter;stroke-miterlimit:4;stroke-dasharray:none;stroke-dashoffset:0;stroke-opacity:1;-inkscape-stroke:none;stop-color:#000000;stop-opacity:1" />
  <path
     d="M 8,5 A 4,4 0 1 1 8,13 4,4 0 0 1 8,5 Z"
     id="path2"
     style="fill:#ffffff" />
  <path
     d="M 8,7 A 2,2 0 1 0 8,11 2,2 0 0 0 8,7 Z"
     id="path3"
     style="font-variation-settings:normal;opacity:1;vector-effect:none;fill:#22314e;fill-opacity:1;stroke-width:0.56314;stroke-linecap:butt;stroke-linejoin:miter;stroke-miterlimit:4;stroke-dasharray:none;stroke-dashoffset:0;stroke-opacity:1;-inkscape-stroke:none;stop-color:#000000;stop-opacity:1" />
</svg>
