<?xml version="1.0" encoding="UTF-8" standalone="no"?>
<!-- Generator: Adobe Illustrator 24.1.3, SVG Export Plug-In . SVG Version: 6.00 Build 0)  -->

<svg
   version="1.1"
   id="Layer_1"
   x="0px"
   y="0px"
   viewBox="0 0 115.5 117.5"
   enable-background="new 0 0 115.5 117.5"
   xml:space="preserve"
   sodipodi:docname="cross.svg"
   inkscape:version="1.1.2 (0a00cf5339, 2022-02-04)"
   xmlns:inkscape="http://www.inkscape.org/namespaces/inkscape"
   xmlns:sodipodi="http://sodipodi.sourceforge.net/DTD/sodipodi-0.dtd"
   xmlns="http://www.w3.org/2000/svg"
   xmlns:svg="http://www.w3.org/2000/svg"><defs
     id="defs3577" /><sodipodi:namedview
     id="namedview3575"
     pagecolor="#ffffff"
     bordercolor="#666666"
     borderopacity="1.0"
     inkscape:showpageshadow="2"
     inkscape:pageopacity="0.0"
     inkscape:pagecheckerboard="0"
     inkscape:deskcolor="#d1d1d1"
     showgrid="false"
     inkscape:zoom="2.1531718"
     inkscape:cx="-23.685988"
     inkscape:cy="66.181437"
     inkscape:window-width="1916"
     inkscape:window-height="1040"
     inkscape:window-x="0"
     inkscape:window-y="18"
     inkscape:window-maximized="1"
     inkscape:current-layer="Layer_1"
     inkscape:pageshadow="2"
     inkscape:snap-global="true"
     showguides="true"
     inkscape:guide-bbox="true" /><path
     id="path4616-9"
     style="opacity:1;vector-effect:none;fill:#bcc9e2;fill-opacity:1;stroke:#22314e;stop-color:#000000;stop-opacity:1"
     d="m 29.465167,9.2548617 c -3.75546,-3.84342 -9.30563,-5.3653 -14.51608,-3.98546 -5.2104597,1.37983 -9.2799697,5.4491903 -10.6600097,10.6595903 -1.38003,5.2104 0.14162,10.76065 3.96316,14.53839 L 36.513707,58.751342 8.2160373,87.049202 c -3.80088,3.8204 -5.26441,9.36147 -3.85069,14.542028 1.41373,5.18056 5.48902,9.21015 10.6851797,10.56539 5.19616,1.35526 10.72039,-0.17062 14.43819,-3.95429 l 28.2382,-28.237778 28.28427,28.284268 c 3.77811,3.8443 9.32834,5.36596 14.538743,3.98593 5.2104,-1.38003 9.27975,-5.44955 10.65959,-10.66 1.37983,-5.210458 -0.14203,-10.760638 -3.98581,-14.538858 L 78.940117,58.751342 107.22469,30.465672 c 3.85078,-3.7853 5.37096,-9.34642 3.98071,-14.56288 -1.39025,-5.21644 -5.47641,-9.2834303 -10.69934,-10.6491403 -5.222933,-1.36572 -10.776883,0.18055 -14.518753,4.02451 L 57.726917,37.538142 Z"
     sodipodi:nodetypes="csscccsscccsscccssccc" /><path
     id="path39880"
     fill="#22314e"
     d="m 30.564087,20.291773 c 0,6.232452 -4.889846,11.285048 -10.92086,11.285048 -6.030459,0 -10.9197513,-5.052596 -10.9197513,-11.285048 0,-6.231307 4.8898463,-11.2850481 10.9197513,-11.2850481 6.031014,0 10.92086,5.0537411 10.92086,11.2850481 z"
     style="stroke-width:0.56314" /><path
     id="path39884"
     fill="#22314e"
     d="m 30.564087,97.20791 c 0,6.23131 -4.889846,11.28505 -10.92086,11.28505 -6.030459,0 -10.9197513,-5.05374 -10.9197513,-11.28505 0,-6.231307 4.8898463,-11.285048 10.9197513,-11.285048 6.031014,0 10.92086,5.053741 10.92086,11.285048 z"
     style="stroke-width:0.56314" /><path
     id="path39886"
     fill="#22314e"
     d="m 68.670208,58.750128 c 0,6.232451 -4.889846,11.285048 -10.920859,11.285048 -6.030459,0 -10.919752,-5.052597 -10.919752,-11.285048 0,-6.232452 4.889847,-11.285049 10.919752,-11.285049 6.031567,0 10.920859,5.052597 10.920859,11.285049 z"
     style="stroke-width:0.56314" /><path
     id="path39888"
     fill="#22314e"
     d="m 106.77688,20.291773 c 0,6.232452 -4.88985,11.285048 -10.920861,11.285048 -6.030459,0 -10.919752,-5.052596 -10.919752,-11.285048 0,-6.231307 4.889847,-11.2850481 10.919752,-11.2850481 6.031571,0 10.920861,5.0537411 10.920861,11.2850481 z"
     style="stroke-width:0.56314" /><path
     id="path39894"
     fill="#22314e"
     d="m 106.77688,97.20791 c 0,6.23131 -4.88984,11.28505 -10.920855,11.28505 -6.03046,0 -10.919752,-5.05374 -10.919752,-11.28505 0,-6.231307 4.889846,-11.285048 10.919752,-11.285048 6.031015,0 10.920855,5.053741 10.920855,11.285048 z"
     style="stroke-width:0.56314" /><path
     id="path20383"
     fill="#22314e"
     d="m 30.564087,58.750128 c 0,6.232451 -4.889846,11.285048 -10.920859,11.285048 -6.030459,0 -10.9197519,-5.052597 -10.9197519,-11.285048 0,-6.232452 4.8898469,-11.285049 10.9197519,-11.285049 6.031567,0 10.920859,5.052597 10.920859,11.285049 z"
     style="stroke-width:0.56314" /><path
     id="path20839"
     fill="#22314e"
     d="m 106.77688,58.750128 c 0,6.232451 -4.88985,11.285048 -10.92086,11.285048 -6.030459,0 -10.919752,-5.052597 -10.919752,-11.285048 0,-6.232452 4.889847,-11.285049 10.919752,-11.285049 6.03157,0 10.92086,5.052597 10.92086,11.285049 z"
     style="stroke-width:0.56314" /><path
     id="path20859"
     fill="#22314e"
     d="m 68.670209,20.291773 c 0,6.232451 -4.88985,11.285048 -10.92086,11.285048 -6.030459,0 -10.919752,-5.052597 -10.919752,-11.285048 0,-6.232452 4.889847,-11.2850486 10.919752,-11.2850486 6.03157,0 10.92086,5.0525966 10.92086,11.2850486 z"
     style="stroke-width:0.56314" /><path
     id="path20951"
     fill="#22314e"
     d="m 68.670209,97.207911 c 0,6.232449 -4.88985,11.285049 -10.92086,11.285049 -6.030459,0 -10.919752,-5.0526 -10.919752,-11.285049 0,-6.232452 4.889847,-11.285048 10.919752,-11.285048 6.03157,0 10.92086,5.052596 10.92086,11.285048 z"
     style="stroke-width:0.56314" /></svg>
