<?xml version="1.0" encoding="UTF-8" standalone="no"?>
<!-- Generator: Adobe Illustrator 24.1.3, SVG Export Plug-In . SVG Version: 6.00 Build 0)  -->

<svg
   version="1.1"
   id="Layer_1"
   x="0px"
   y="0px"
   viewBox="0 0 115.5 117.5"
   enable-background="new 0 0 115.5 117.5"
   xml:space="preserve"
   sodipodi:docname="joint.svg"
   inkscape:version="1.3.2 (1:1.3.2+202311252150+091e20ef0f)"
   xmlns:inkscape="http://www.inkscape.org/namespaces/inkscape"
   xmlns:sodipodi="http://sodipodi.sourceforge.net/DTD/sodipodi-0.dtd"
   xmlns="http://www.w3.org/2000/svg"
   xmlns:svg="http://www.w3.org/2000/svg"><defs
   id="defs212">
	
	
	
	
	
	
	
	
	
</defs><sodipodi:namedview
   id="namedview210"
   pagecolor="#ffffff"
   bordercolor="#666666"
   borderopacity="1.0"
   inkscape:showpageshadow="2"
   inkscape:pageopacity="0.0"
   inkscape:pagecheckerboard="0"
   inkscape:deskcolor="#d1d1d1"
   showgrid="false"
   inkscape:zoom="7.787234"
   inkscape:cx="57.786886"
   inkscape:cy="58.75"
   inkscape:window-width="2556"
   inkscape:window-height="1398"
   inkscape:window-x="0"
   inkscape:window-y="0"
   inkscape:window-maximized="1"
   inkscape:current-layer="Layer_1" />
<path
   id="path39880"
   d="m 30.11165,20.291773 c 0,5.974237 -4.687256,10.8175 -10.4684,10.8175 -5.780612,0 -10.4673377,-4.843263 -10.4673377,-10.8175 0,-5.973139 4.6872567,-10.8174999 10.4673377,-10.8174999 5.781144,0 10.4684,4.8443609 10.4684,10.8174999 z"
   style="fill:none;stroke:#22314e;stroke-width:2;stroke-opacity:1;font-variation-settings:normal;opacity:1;vector-effect:none;fill-opacity:1;stroke-linecap:butt;stroke-linejoin:miter;stroke-miterlimit:4;stroke-dasharray:none;stroke-dashoffset:0;-inkscape-stroke:none;stop-color:#000000;stop-opacity:1" /><path
   id="path39882"
   fill="#22314e"
   d="m 30.564087,58.750128 c 0,6.232451 -4.889846,11.285048 -10.92086,11.285048 -6.030459,0 -10.9197513,-5.052597 -10.9197513,-11.285048 0,-6.232452 4.8898463,-11.285049 10.9197513,-11.285049 6.031014,0 10.92086,5.052597 10.92086,11.285049 z"
   style="stroke-width:0.56314" /><path
   id="path39884"
   fill="#22314e"
   d="m 30.564087,97.20791 c 0,6.23131 -4.889846,11.28505 -10.92086,11.28505 -6.030459,0 -10.9197513,-5.05374 -10.9197513,-11.28505 0,-6.231307 4.8898463,-11.285048 10.9197513,-11.285048 6.031014,0 10.92086,5.053741 10.92086,11.285048 z"
   style="stroke-width:0.56314" /><path
   id="path39890"
   fill="#22314e"
   d="m 106.77688,58.750128 c 0,6.232451 -4.88984,11.285048 -10.920855,11.285048 -6.03046,0 -10.919752,-5.052597 -10.919752,-11.285048 0,-6.232452 4.889846,-11.285049 10.919752,-11.285049 6.031015,0 10.920855,5.052597 10.920855,11.285049 z"
   style="stroke-width:0.56314" /><path
   id="path39892"
   fill="#22314e"
   d="m 106.77688,20.291773 c 0,6.232452 -4.88984,11.285048 -10.920855,11.285048 -6.03046,0 -10.919752,-5.052596 -10.919752,-11.285048 0,-6.231307 4.889846,-11.2850481 10.919752,-11.2850481 6.031015,0 10.920855,5.0537411 10.920855,11.2850481 z"
   style="stroke-width:0.56314" /><path
   id="path1"
   d="m 112.62621,97.207911 c 0,9.570789 -7.50903,17.329749 -16.770484,17.329749 -9.260601,0 -16.768785,-7.75896 -16.768785,-17.329749 0,-9.569032 7.509033,-17.329748 16.768785,-17.329748 9.261454,0 16.770484,7.760716 16.770484,17.329748 z"
   style="font-variation-settings:normal;opacity:1;vector-effect:none;fill:#6c82bc;fill-opacity:1;stroke:#22314e;stroke-width:2;stroke-linecap:butt;stroke-linejoin:miter;stroke-miterlimit:4;stroke-dasharray:none;stroke-dashoffset:0;stroke-opacity:1;-inkscape-stroke:none;stop-color:#000000;stop-opacity:1" /><path
   id="path39894"
   fill="#22314e"
   d="m 106.77688,97.20791 c 0,6.23131 -4.88984,11.28505 -10.920855,11.28505 -6.03046,0 -10.919752,-5.05374 -10.919752,-11.28505 0,-6.231307 4.889846,-11.285048 10.919752,-11.285048 6.031015,0 10.920855,5.053741 10.920855,11.285048 z"
   style="stroke-width:0.56314" /><path
   id="path39896"
   fill="#22314e"
   d="m 68.670208,97.20791 c 0,6.23131 -4.889846,11.28505 -10.920859,11.28505 -6.030459,0 -10.919752,-5.05374 -10.919752,-11.28505 0,-6.231307 4.889847,-11.285048 10.919752,-11.285048 6.031567,0 10.920859,5.053741 10.920859,11.285048 z"
   style="stroke-width:0.56314" />
<path
   id="path3914"
   d="m 68.217771,20.291773 c 0,5.974237 -4.687255,10.8175 -10.468399,10.8175 -5.780612,0 -10.467338,-4.843263 -10.467338,-10.8175 0,-5.973139 4.687257,-10.8174998 10.467338,-10.8174998 5.781143,0 10.468399,4.8443608 10.468399,10.8174998 z"
   style="fill:none;stroke:#22314e;stroke-width:2;stroke-opacity:1;font-variation-settings:normal;opacity:1;vector-effect:none;fill-opacity:1;stroke-linecap:butt;stroke-linejoin:miter;stroke-miterlimit:4;stroke-dasharray:none;stroke-dashoffset:0;-inkscape-stroke:none;stop-color:#000000;stop-opacity:1" /><path
   id="path3912"
   d="m 68.217771,58.750127 c 0,5.974237 -4.687256,10.8175 -10.468399,10.8175 -5.780612,0 -10.467338,-4.843263 -10.467338,-10.8175 0,-5.973139 4.687257,-10.8175 10.467338,-10.8175 5.781143,0 10.468399,4.844361 10.468399,10.8175 z"
   style="fill:none;stroke:#22314e;stroke-width:2;stroke-opacity:1;font-variation-settings:normal;opacity:1;vector-effect:none;fill-opacity:1;stroke-linecap:butt;stroke-linejoin:miter;stroke-miterlimit:4;stroke-dasharray:none;stroke-dashoffset:0;-inkscape-stroke:none;stop-color:#000000;stop-opacity:1" /><path
   style="fill:none;stroke:#22314e;stroke-width:5;-inkscape-stroke:none;stop-color:#000000;font-variation-settings:normal;opacity:1;vector-effect:none;fill-opacity:1;stroke-linecap:butt;stroke-linejoin:miter;stroke-miterlimit:4;stroke-dasharray:none;stroke-dashoffset:0;stroke-opacity:1;stop-opacity:1"
   d="m 19.072816,58.750127 0.570965,38.457784 h 76.212796 l 0,-76.916138"
   id="path1973" /></svg>
