<?xml version="1.0" encoding="UTF-8" standalone="no"?>
<!-- Generator: Adobe Illustrator 24.1.3, SVG Export Plug-In . SVG Version: 6.00 Build 0)  -->

<svg
   version="1.1"
   id="Layer_1"
   x="0px"
   y="0px"
   viewBox="0 0 115.5 117.5"
   enable-background="new 0 0 115.5 117.5"
   xml:space="preserve"
   sodipodi:docname="robot.svg"
   inkscape:version="1.2 (1:1.2.1+202207142221+cd75a1ee6d)"
   xmlns:inkscape="http://www.inkscape.org/namespaces/inkscape"
   xmlns:sodipodi="http://sodipodi.sourceforge.net/DTD/sodipodi-0.dtd"
   xmlns="http://www.w3.org/2000/svg"
   xmlns:svg="http://www.w3.org/2000/svg"><defs
   id="defs3577">
	
	
	
	
	
	
	
	
	
</defs><sodipodi:namedview
   id="namedview3575"
   pagecolor="#ffffff"
   bordercolor="#666666"
   borderopacity="1.0"
   inkscape:showpageshadow="2"
   inkscape:pageopacity="0.0"
   inkscape:pagecheckerboard="0"
   inkscape:deskcolor="#d1d1d1"
   showgrid="false"
   inkscape:zoom="7.7489362"
   inkscape:cx="40.586216"
   inkscape:cy="40.908841"
   inkscape:window-width="3830"
   inkscape:window-height="2085"
   inkscape:window-x="0"
   inkscape:window-y="30"
   inkscape:window-maximized="1"
   inkscape:current-layer="Layer_1" />
<path
   id="path39880"
   fill="#22314e"
   d="m 30.564087,20.291773 c 0,6.232452 -4.889846,11.285048 -10.92086,11.285048 -6.030459,0 -10.9197513,-5.052596 -10.9197513,-11.285048 0,-6.231307 4.8898463,-11.2850481 10.9197513,-11.2850481 6.031014,0 10.92086,5.0537411 10.92086,11.2850481 z"
   style="stroke-width:0.56314" /><path
   id="path39882"
   fill="#22314e"
   d="m 30.564087,58.750128 c 0,6.232451 -4.889846,11.285048 -10.92086,11.285048 -6.030459,0 -10.9197513,-5.052597 -10.9197513,-11.285048 0,-6.232452 4.8898463,-11.285049 10.9197513,-11.285049 6.031014,0 10.92086,5.052597 10.92086,11.285049 z"
   style="stroke-width:0.56314" /><path
   id="path39884"
   fill="#22314e"
   d="m 30.564087,97.20791 c 0,6.23131 -4.889846,11.28505 -10.92086,11.28505 -6.030459,0 -10.9197513,-5.05374 -10.9197513,-11.28505 0,-6.231307 4.8898463,-11.285048 10.9197513,-11.285048 6.031014,0 10.92086,5.053741 10.92086,11.285048 z"
   style="stroke-width:0.56314" /><path
   id="path39886"
   fill="#22314e"
   d="m 68.670208,58.750128 c 0,6.232451 -4.889846,11.285048 -10.920859,11.285048 -6.030459,0 -10.919752,-5.052597 -10.919752,-11.285048 0,-6.232452 4.889847,-11.285049 10.919752,-11.285049 6.031567,0 10.920859,5.052597 10.920859,11.285049 z"
   style="stroke-width:0.56314" /><path
   id="path39888"
   fill="#22314e"
   d="m 68.670208,20.291773 c 0,6.232452 -4.889846,11.285048 -10.920859,11.285048 -6.030459,0 -10.919752,-5.052596 -10.919752,-11.285048 0,-6.231307 4.889847,-11.2850481 10.919752,-11.2850481 6.031567,0 10.920859,5.0537411 10.920859,11.2850481 z"
   style="stroke-width:0.56314" /><path
   id="path39894"
   fill="#22314e"
   d="m 106.77688,97.20791 c 0,6.23131 -4.88984,11.28505 -10.920855,11.28505 -6.03046,0 -10.919752,-5.05374 -10.919752,-11.28505 0,-6.231307 4.889846,-11.285048 10.919752,-11.285048 6.031015,0 10.920855,5.053741 10.920855,11.285048 z"
   style="stroke-width:0.56314" />
<path
   id="path3912"
   d="m 68.21777,97.20791 c 0,5.97424 -4.687255,10.8175 -10.468398,10.8175 -5.780611,0 -10.467337,-4.84326 -10.467337,-10.8175 0,-5.97314 4.687257,-10.8175 10.467337,-10.8175 5.781143,0 10.468398,4.84436 10.468398,10.8175 z"
   style="fill:none;stroke:#22314e;stroke-width:0.905735;stroke-opacity:1" /><path
   id="path3904"
   d="m 106.32401,58.764808 c 0,5.97424 -4.68725,10.8175 -10.46839,10.8175 -5.780611,0 -10.467337,-4.84326 -10.467337,-10.8175 0,-5.97314 4.687257,-10.8175 10.467337,-10.8175 5.78114,0 10.46839,4.84436 10.46839,10.8175 z"
   style="fill:none;stroke:#22314e;stroke-width:0.905735;stroke-opacity:1" /><path
   id="path3906"
   d="m 106.32444,20.291773 c 0,5.97424 -4.68725,10.8175 -10.468394,10.8175 -5.780611,0 -10.467337,-4.84326 -10.467337,-10.8175 0,-5.97314 4.687257,-10.8175001 10.467337,-10.8175001 5.781144,0 10.468394,4.8443601 10.468394,10.8175001 z"
   style="fill:none;stroke:#22314e;stroke-width:0.905735;stroke-opacity:1" /><path
   style="fill:none;stroke:#22314e;stroke-width:0.999999;-inkscape-stroke:none;stop-color:#000000"
   d="M 19.140787,97.207911 19.643781,20.617167 57.749903,20.291773 58.083791,58.75 95.856577,97.207911"
   id="path1494" /><path
   style="fill:none;stroke:#22314e;stroke-width:0.999999;-inkscape-stroke:none;stop-color:#000000"
   d="M 58.083791,58.75 H 19.393351"
   id="path1496" /></svg>
