<?xml version="1.0" encoding="utf-8"?>
<!-- Generator: Adobe Illustrator 24.1.3, SVG Export Plug-In . SVG Version: 6.00 Build 0)  -->
<svg version="1.1" id="Layer_1" xmlns="http://www.w3.org/2000/svg" xmlns:xlink="http://www.w3.org/1999/xlink" x="0px" y="0px"
	 viewBox="0 0 115.5 117.5" enable-background="new 0 0 115.5 117.5" xml:space="preserve">
<g id="g39878" transform="matrix(0.55396467,0,0,0.57246732,56.086901,77.489273)">
	<path id="path39880" fill="#22314E" d="M-46.073-99.914c0,10.887-8.827,19.713-19.714,19.713c-10.886,0-19.712-8.826-19.712-19.713
		c0-10.885,8.827-19.713,19.712-19.713C-54.9-119.627-46.073-110.799-46.073-99.914z"/>
	<path id="path39882" fill="#22314E" d="M-46.073-32.734c0,10.887-8.827,19.713-19.714,19.713c-10.886,0-19.712-8.826-19.712-19.713
		c0-10.887,8.827-19.713,19.712-19.713C-54.9-52.447-46.073-43.621-46.073-32.734z"/>
	<path id="path39884" fill="#22314E" d="M-46.073,34.445c0,10.885-8.827,19.713-19.714,19.713c-10.886,0-19.712-8.828-19.712-19.713
		c0-10.885,8.827-19.713,19.712-19.713C-54.9,14.732-46.073,23.56-46.073,34.445z"/>
	<path id="path39886" fill="#22314E" d="M22.715-32.734c0,10.887-8.827,19.713-19.714,19.713c-10.886,0-19.712-8.826-19.712-19.713
		c0-10.887,8.827-19.713,19.712-19.713C13.889-52.447,22.715-43.621,22.715-32.734z"/>
	<path id="path39888" fill="#22314E" d="M22.715-99.914c0,10.887-8.827,19.713-19.714,19.713c-10.886,0-19.712-8.826-19.712-19.713
		c0-10.885,8.827-19.713,19.712-19.713C13.889-119.627,22.715-110.799,22.715-99.914z"/>
	<path id="path39890" fill="#22314E" d="M91.504-32.734c0,10.887-8.827,19.713-19.714,19.713c-10.886,0-19.712-8.826-19.712-19.713
		c0-10.887,8.827-19.713,19.712-19.713C82.677-52.447,91.504-43.621,91.504-32.734z"/>
	<path id="path39892" fill="#22314E" d="M91.504-99.914c0,10.887-8.827,19.713-19.714,19.713c-10.886,0-19.712-8.826-19.712-19.713
		c0-10.885,8.827-19.713,19.712-19.713C82.677-119.627,91.504-110.799,91.504-99.914z"/>
	<path id="path39894" fill="#22314E" d="M91.504,34.445c0,10.885-8.827,19.713-19.714,19.713c-10.886,0-19.712-8.828-19.712-19.713
		c0-10.885,8.827-19.713,19.712-19.713C82.677,14.732,91.504,23.56,91.504,34.445z"/>
	<path id="path39896" fill="#22314E" d="M22.715,34.445c0,10.885-8.827,19.713-19.714,19.713c-10.886,0-19.712-8.828-19.712-19.713
		c0-10.885,8.827-19.713,19.712-19.713C13.889,14.732,22.715,23.56,22.715,34.445z"/>
</g>
</svg>
