<?xml version="1.0" encoding="utf-8"?>
<!-- This work is licensed under a 
<a rel="license" href="https://creativecommons.org/publicdomain/zero/1.0/deed">CC0 1.0</a>.
-->
<svg viewBox="0 0 64 64" xmlns="http://www.w3.org/2000/svg" xmlns:bx="https://boxy-svg.com">
  <rect width="20.184" height="18.042" style="fill: rgb(216, 216, 216); stroke: rgb(0, 0, 0);" x="2.624" y="2.276" transform="matrix(0.9999999999999999, 0, 0, 0.9999999999999999, -7.105427357601002e-15, -2.220446049250313e-16)"/>
  <rect width="20.184" height="18.042" style="fill: rgb(216, 216, 216); stroke: rgb(0, 0, 0);" y="2.276" x="41.307" transform="matrix(0.9999999999999999, 0, 0, 0.9999999999999999, -7.105427357601002e-15, -2.220446049250313e-16)"/>
  <rect x="9.626" y="43.461" width="10.239" height="10.671" style="fill: rgb(216, 216, 216); stroke: rgb(0, 0, 0);" rx="1.445" ry="1.445" transform="matrix(0.9999999999999999, 0, 0, 0.9999999999999999, -7.105427357601002e-15, -2.220446049250313e-16)"/>
  <rect x="41.57" y="42.31" width="20.184" height="18.042" style="fill: rgb(216, 216, 216); stroke: rgb(0, 0, 0);" transform="matrix(0.9999999999999999, 0, 0, 0.9999999999999999, -7.105427357601002e-15, -2.220446049250313e-16)"/>
  <path d="M 1.731 5.328 H 5.875 L 5.875 3.186 L 11.917 7.071 L 5.875 10.955 L 5.875 8.813 H 1.731 V 5.328 Z" style="fill: rgb(216, 216, 216); stroke: rgb(0, 0, 0);" transform="matrix(-0.6676950454711914, 0.7444350123405457, -0.7512129545211792, -0.6601380109786987, 44.83490371704101, 26.740612030029297)" bx:shape="arrow 1.731 3.186 10.185 7.769 3.485 6.041 0 1@88f4f61e"/>
  <rect x="16.85" y="55.022" width="1.599" height="6.927" style="fill: rgb(216, 216, 216); stroke: rgb(0, 0, 0);" transform="matrix(0.9999999999999999, 0, 0, 0.9999999999999999, -7.105427357601002e-15, -2.220446049250313e-16)"/>
  <rect x="12.654" y="35.893" width="4.636" height="4.276" style="fill: rgb(216, 216, 216); stroke: rgb(0, 0, 0);" rx="0.266" ry="0.266" transform="matrix(0.9999999999999999, 0, 0, 0.9999999999999999, -7.105427357601002e-15, -2.220446049250313e-16)"/>
  <rect x="14.456" y="40.232" width="0.901" height="3.058" style="fill: rgb(216, 216, 216); stroke: rgb(0, 0, 0);" rx="0.266" ry="0.266" transform="matrix(0.9999999999999999, 0, 0, 0.9999999999999999, -7.105427357601002e-15, -2.220446049250313e-16)"/>
  <rect x="19.865" y="44.224" width="5.989" height="1.975" style="fill: rgb(216, 216, 216); stroke: rgb(0, 0, 0);" rx="0.513" ry="0.513" transform="matrix(0.9999999999999999, 0, 0, 0.9999999999999999, -7.105427357601002e-15, -2.220446049250313e-16)"/>
  <rect x="3.639" y="44.1" width="5.989" height="2.099" style="fill: rgb(216, 216, 216); stroke: rgb(0, 0, 0);" rx="0.513" ry="0.513" transform="matrix(0.9999999999999999, 0, 0, 0.9999999999999999, -7.105427357601002e-15, -2.220446049250313e-16)"/>
  <path d="M 1.723 5.343 H 3.921 L 3.921 3.194 L 9.935 7.091 L 3.921 10.987 L 3.921 8.838 H 1.723 V 5.343 Z" style="fill: rgb(216, 216, 216); stroke: rgb(0, 0, 0);" transform="matrix(-0.9999949932098388, 0.003113000188022852, -0.0031770002096891403, -0.9999949932098388, 40.3493309020996, 58.677764892578125)" bx:shape="arrow 1.723 3.194 8.212 7.792 3.496 6.014 0 1@c1b53b3e"/>
  <path d="M 1.723 5.352 H 4.144 L 4.144 3.2 L 10.158 7.103 L 4.144 11.005 L 4.144 8.853 H 1.723 V 5.352 Z" style="fill: rgb(216, 216, 216); stroke: rgb(0, 0, 0);" transform="matrix(0.0005830000736750662, 0.9999999999999999, -0.9999999999999999, 0.0005710000405088067, 20.044342041015618, 21.247175216674805)" bx:shape="arrow 1.723 3.2 8.434 7.805 3.501 6.014 0 1@6c5d0264"/>
  <text style="fill: rgb(51, 51, 51); font-family: Arial, sans-serif; font-size: 3.1px; white-space: pre;" x="3.8" y="7.606" transform="matrix(2.0581579208374023, 0, 0, 2.0372250080108643, -2.9289069175720286, -2.3607239723205566)">Metal</text>
  <text style="fill: rgb(51, 51, 51); font-family: Arial, sans-serif; font-size: 3.1px; white-space: pre;" x="21.703" y="7.606" transform="matrix(2.0581579208374023, 0, 0, 2.0372250080108643, -2.9289069175720286, -2.3607239723205566)">Plastic</text>
  <text style="fill: rgb(51, 51, 51); font-family: Arial, sans-serif; font-size: 2.1px; white-space: pre;" transform="matrix(2.0581579208374023, 0, 0, 2.0372250080108643, -2.3072969913482737, -2.1284210681915283)"><tspan x="22.616" y="26.011">Other</tspan><tspan x="22.616" dy="1em">​</tspan><tspan>Material</tspan></text>
  <rect x="11.055" y="55.022" width="1.599" height="6.927" style="fill: rgb(216, 216, 216); stroke: rgb(0, 0, 0);" transform="matrix(0.9999999999999999, 0, 0, 0.9999999999999999, -7.105427357601002e-15, -2.220446049250313e-16)"/>
</svg>