<?xml version="1.0" encoding="UTF-8" standalone="no"?>
<!-- Generator: Adobe Illustrator 24.1.3, SVG Export Plug-In . SVG Version: 6.00 Build 0)  -->

<svg
   version="1.1"
   id="Layer_1"
   x="0px"
   y="0px"
   viewBox="0 0 115.5 117.5"
   enable-background="new 0 0 115.5 117.5"
   xml:space="preserve"
   sodipodi:docname="wb_settings.svg"
   inkscape:version="1.1.2 (0a00cf5339, 2022-02-04)"
   xmlns:inkscape="http://www.inkscape.org/namespaces/inkscape"
   xmlns:sodipodi="http://sodipodi.sourceforge.net/DTD/sodipodi-0.dtd"
   xmlns="http://www.w3.org/2000/svg"
   xmlns:svg="http://www.w3.org/2000/svg"><defs
   id="defs830"><linearGradient
     id="linearGradient3087"><stop
       style="stop-color:#3465a4;stop-opacity:1;"
       offset="0"
       id="stop3089" /><stop
       id="stop3095"
       offset="0"
       style="stop-color:#9fbce1;stop-opacity:1;" /><stop
       style="stop-color:#6b95ca;stop-opacity:1;"
       offset="0"
       id="stop2242" /><stop
       id="stop2244"
       offset="0.75"
       style="stop-color:#3d6aa5;stop-opacity:1;" /><stop
       style="stop-color:#386eb4;stop-opacity:1;"
       offset="1"
       id="stop3091" /></linearGradient><linearGradient
     id="linearGradient3077"><stop
       style="stop-color:#98a0a9;stop-opacity:1;"
       offset="0"
       id="stop3079" /><stop
       style="stop-color:#c3d0dd;stop-opacity:1;"
       offset="1"
       id="stop3081" /></linearGradient><linearGradient
     id="linearGradient3061"><stop
       style="stop-color:#ffffff;stop-opacity:1;"
       offset="0"
       id="stop3063" /><stop
       style="stop-color:#000000;stop-opacity:1;"
       offset="1"
       id="stop3065" /></linearGradient><linearGradient
     id="linearGradient3049"><stop
       style="stop-color:#b6b6b6;stop-opacity:1;"
       offset="0"
       id="stop3051" /><stop
       id="stop2262"
       offset="0.5"
       style="stop-color:#f2f2f2;stop-opacity:1;" /><stop
       style="stop-color:#fafafa;stop-opacity:1;"
       offset="0.67612958"
       id="stop2264" /><stop
       id="stop2268"
       offset="0.84051722"
       style="stop-color:#d8d8d8;stop-opacity:1;" /><stop
       id="stop2266"
       offset="0.875"
       style="stop-color:#f2f2f2;stop-opacity:1;" /><stop
       style="stop-color:#dbdbdb;stop-opacity:1;"
       offset="1"
       id="stop3053" /></linearGradient></defs><sodipodi:namedview
   id="namedview828"
   pagecolor="#ffffff"
   bordercolor="#666666"
   borderopacity="1.0"
   inkscape:pageshadow="2"
   inkscape:pageopacity="0.0"
   inkscape:pagecheckerboard="0"
   showgrid="false"
   inkscape:zoom="2.6208086"
   inkscape:cx="46.932081"
   inkscape:cy="28.235561"
   inkscape:window-width="1916"
   inkscape:window-height="1041"
   inkscape:window-x="0"
   inkscape:window-y="18"
   inkscape:window-maximized="1"
   inkscape:current-layer="Layer_1"
   inkscape:snap-global="false" />
<path
   style="color:#000000;display:inline;overflow:visible;visibility:visible;fill:#b3b3b3;fill-opacity:1;fill-rule:nonzero;stroke:#22314e;stroke-width:2.78839;stroke-linecap:butt;stroke-linejoin:miter;stroke-miterlimit:4;stroke-dasharray:none;stroke-dashoffset:0;stroke-opacity:1;marker:none;marker-start:none;marker-mid:none;marker-end:none"
   d="m 91.421539,108.4459 c 1.900578,2.11495 9.968161,1.49112 15.035661,-3.61045 4.89324,-4.926788 5.91771,-12.1298 2.04945,-15.744084 L 48.909967,31.243075 C 51.614869,15.695892 37.71025,4.158578 29.671445,5.179868 l -3.216956,3.1018882 9.315584,9.3794048 -1.061782,9.808917 -9.151096,8.886991 -10.374204,1.045608 -8.644872,-8.442747 -3.9680592,4.092976 c -0.555371,7.570539 15.7592252,19.7158 27.0305732,15.831749 z"
   id="path722"
   sodipodi:nodetypes="czcccccccccccc" /><g
   id="g39878"
   transform="matrix(0.55396467,0,0,0.57246732,56.086901,77.489273)">
	<path
   id="path39880"
   fill="#22314E"
   d="M-46.073-99.914c0,10.887-8.827,19.713-19.714,19.713c-10.886,0-19.712-8.826-19.712-19.713   c0-10.885,8.827-19.713,19.712-19.713C-54.9-119.627-46.073-110.799-46.073-99.914z" />
	<path
   id="path39882"
   fill="#22314E"
   d="M-46.073-32.734c0,10.887-8.827,19.713-19.714,19.713c-10.886,0-19.712-8.826-19.712-19.713   c0-10.887,8.827-19.713,19.712-19.713C-54.9-52.447-46.073-43.621-46.073-32.734z" />
	<path
   id="path39884"
   fill="#22314E"
   d="M-46.073,34.445c0,10.885-8.827,19.713-19.714,19.713c-10.886,0-19.712-8.828-19.712-19.713   c0-10.885,8.827-19.713,19.712-19.713C-54.9,14.732-46.073,23.56-46.073,34.445z" />
	<path
   id="path39886"
   fill="#22314E"
   d="M22.715-32.734c0,10.887-8.827,19.713-19.714,19.713c-10.886,0-19.712-8.826-19.712-19.713   c0-10.887,8.827-19.713,19.712-19.713C13.889-52.447,22.715-43.621,22.715-32.734z" />
	<path
   id="path39888"
   fill="#22314E"
   d="M22.715-99.914c0,10.887-8.827,19.713-19.714,19.713c-10.886,0-19.712-8.826-19.712-19.713   c0-10.885,8.827-19.713,19.712-19.713C13.889-119.627,22.715-110.799,22.715-99.914z" />
	<path
   id="path39890"
   fill="#22314E"
   d="M91.504-32.734c0,10.887-8.827,19.713-19.714,19.713c-10.886,0-19.712-8.826-19.712-19.713   c0-10.887,8.827-19.713,19.712-19.713C82.677-52.447,91.504-43.621,91.504-32.734z" />
	<path
   id="path39892"
   fill="#22314E"
   d="M91.504-99.914c0,10.887-8.827,19.713-19.714,19.713c-10.886,0-19.712-8.826-19.712-19.713   c0-10.885,8.827-19.713,19.712-19.713C82.677-119.627,91.504-110.799,91.504-99.914z" />
	<path
   id="path39894"
   fill="#22314E"
   d="M91.504,34.445c0,10.885-8.827,19.713-19.714,19.713c-10.886,0-19.712-8.828-19.712-19.713   c0-10.885,8.827-19.713,19.712-19.713C82.677,14.732,91.504,23.56,91.504,34.445z" />
	<path
   id="path39896"
   fill="#22314E"
   d="M22.715,34.445c0,10.885-8.827,19.713-19.714,19.713c-10.886,0-19.712-8.828-19.712-19.713   c0-10.885,8.827-19.713,19.712-19.713C13.889,14.732,22.715,23.56,22.715,34.445z" />
</g>
</svg>
