<?xml version="1.0" encoding="UTF-8" standalone="no"?>
<!-- Generator: Adobe Illustrator 24.1.3, SVG Export Plug-In . SVG Version: 6.00 Build 0)  -->

<svg
   version="1.1"
   id="Layer_1"
   x="0px"
   y="0px"
   viewBox="0 0 115.5 117.5"
   enable-background="new 0 0 115.5 117.5"
   xml:space="preserve"
   sodipodi:docname="xacro.svg"
   inkscape:version="1.3.2 (1:1.3.2+202311252150+091e20ef0f)"
   xmlns:inkscape="http://www.inkscape.org/namespaces/inkscape"
   xmlns:sodipodi="http://sodipodi.sourceforge.net/DTD/sodipodi-0.dtd"
   xmlns="http://www.w3.org/2000/svg"
   xmlns:svg="http://www.w3.org/2000/svg"><defs
   id="defs3577">
	
	
	
	
	
	
	
	
	
</defs><sodipodi:namedview
   id="namedview3575"
   pagecolor="#ffffff"
   bordercolor="#666666"
   borderopacity="1.0"
   inkscape:showpageshadow="2"
   inkscape:pageopacity="0.0"
   inkscape:pagecheckerboard="0"
   inkscape:deskcolor="#d1d1d1"
   showgrid="false"
   inkscape:zoom="7.787234"
   inkscape:cx="57.786885"
   inkscape:cy="58.75"
   inkscape:window-width="1916"
   inkscape:window-height="1160"
   inkscape:window-x="0"
   inkscape:window-y="0"
   inkscape:window-maximized="1"
   inkscape:current-layer="Layer_1" />
<path
   id="path39880"
   fill="#22314e"
   d="m 30.564087,20.291773 c 0,6.232452 -4.889846,11.285048 -10.92086,11.285048 -6.030459,0 -10.9197513,-5.052596 -10.9197513,-11.285048 0,-6.231307 4.8898463,-11.2850481 10.9197513,-11.2850481 6.031014,0 10.92086,5.0537411 10.92086,11.2850481 z"
   style="stroke-width:0.56314" /><path
   id="path39884"
   fill="#22314e"
   d="m 30.564087,97.20791 c 0,6.23131 -4.889846,11.28505 -10.92086,11.28505 -6.030459,0 -10.9197513,-5.05374 -10.9197513,-11.28505 0,-6.231307 4.8898463,-11.285048 10.9197513,-11.285048 6.031014,0 10.92086,5.053741 10.92086,11.285048 z"
   style="stroke-width:0.56314" /><path
   id="path39886"
   fill="#22314e"
   d="m 68.670208,58.750128 c 0,6.232451 -4.889846,11.285048 -10.920859,11.285048 -6.030459,0 -10.919752,-5.052597 -10.919752,-11.285048 0,-6.232452 4.889847,-11.285049 10.919752,-11.285049 6.031567,0 10.920859,5.052597 10.920859,11.285049 z"
   style="stroke-width:0.56314" /><path
   id="path39888"
   fill="#22314e"
   d="m 106.77688,20.291773 c 0,6.232452 -4.88985,11.285048 -10.920861,11.285048 -6.030459,0 -10.919752,-5.052596 -10.919752,-11.285048 0,-6.231307 4.889847,-11.2850481 10.919752,-11.2850481 6.031571,0 10.920861,5.0537411 10.920861,11.2850481 z"
   style="stroke-width:0.56314" /><path
   id="path39894"
   fill="#22314e"
   d="m 106.77688,97.20791 c 0,6.23131 -4.88984,11.28505 -10.920855,11.28505 -6.03046,0 -10.919752,-5.05374 -10.919752,-11.28505 0,-6.231307 4.889846,-11.285048 10.919752,-11.285048 6.031015,0 10.920855,5.053741 10.920855,11.285048 z"
   style="stroke-width:0.56314" />
<path
   id="path3912"
   d="m 68.21777,97.20791 c 0,5.97424 -4.687255,10.8175 -10.468398,10.8175 -5.780611,0 -10.467337,-4.84326 -10.467337,-10.8175 0,-5.97314 4.687257,-10.8175 10.467337,-10.8175 5.781143,0 10.468398,4.84436 10.468398,10.8175 z"
   style="fill:none;stroke:#22314e;stroke-width:2;stroke-opacity:1;font-variation-settings:normal;opacity:1;vector-effect:none;fill-opacity:1;stroke-linecap:butt;stroke-linejoin:miter;stroke-miterlimit:4;stroke-dasharray:none;stroke-dashoffset:0;-inkscape-stroke:none;stop-color:#000000;stop-opacity:1" /><path
   id="path3904"
   d="m 106.32401,58.764808 c 0,5.97424 -4.68725,10.8175 -10.46839,10.8175 -5.780611,0 -10.467337,-4.84326 -10.467337,-10.8175 0,-5.97314 4.687257,-10.8175 10.467337,-10.8175 5.78114,0 10.46839,4.84436 10.46839,10.8175 z"
   style="fill:none;stroke:#22314e;stroke-width:2;stroke-opacity:1;font-variation-settings:normal;opacity:1;vector-effect:none;fill-opacity:1;stroke-linecap:butt;stroke-linejoin:miter;stroke-miterlimit:4;stroke-dasharray:none;stroke-dashoffset:0;-inkscape-stroke:none;stop-color:#000000;stop-opacity:1" /><path
   id="path3906"
   d="m 68.21734,20.306453 c 0,5.97424 -4.68725,10.8175 -10.468394,10.8175 -5.780611,0 -10.467337,-4.84326 -10.467337,-10.8175 0,-5.97314 4.687257,-10.8174995 10.467337,-10.8174995 5.781144,0 10.468394,4.8443595 10.468394,10.8174995 z"
   style="fill:none;stroke:#22314e;stroke-width:2;stroke-opacity:1;font-variation-settings:normal;opacity:1;vector-effect:none;fill-opacity:1;stroke-linecap:butt;stroke-linejoin:miter;stroke-miterlimit:4;stroke-dasharray:none;stroke-dashoffset:0;-inkscape-stroke:none;stop-color:#000000;stop-opacity:1" /><path
   id="path21742"
   d="m 30.111522,58.749842 c 0,5.97424 -4.68725,10.817499 -10.468394,10.817499 -5.780611,0 -10.4673365,-4.843259 -10.4673365,-10.817499 0,-5.97314 4.6872565,-10.817501 10.4673365,-10.817501 5.781144,0 10.468394,4.844361 10.468394,10.817501 z"
   style="fill:none;stroke:#22314e;stroke-width:2;stroke-opacity:1;font-variation-settings:normal;opacity:1;vector-effect:none;fill-opacity:1;stroke-linecap:butt;stroke-linejoin:miter;stroke-miterlimit:4;stroke-dasharray:none;stroke-dashoffset:0;-inkscape-stroke:none;stop-color:#000000;stop-opacity:1" /><path
   style="fill:none;stroke:#22314e;stroke-width:5;-inkscape-stroke:none;stop-color:#000000;font-variation-settings:normal;opacity:1;vector-effect:none;fill-opacity:1;stroke-linecap:butt;stroke-linejoin:miter;stroke-miterlimit:4;stroke-dasharray:none;stroke-dashoffset:0;stroke-opacity:1;stop-opacity:1"
   d="M 19.643781,19.817305 95.856577,97.207911"
   id="path2210" /><path
   style="fill:none;stroke:#22314e;stroke-width:5;-inkscape-stroke:none;stop-color:#000000;font-variation-settings:normal;opacity:1;vector-effect:none;fill-opacity:1;stroke-linecap:butt;stroke-linejoin:miter;stroke-miterlimit:4;stroke-dasharray:none;stroke-dashoffset:0;stroke-opacity:1;stop-opacity:1"
   d="M 96.212831,19.466473 18.809463,97.558743"
   id="path2212" /></svg>
